<svg width="2280" height="2280" viewBox="0 0 2280 2280" fill="none" xmlns="http://www.w3.org/2000/svg">
  <path d="M456.265 341.636L577.582 463.236H953.824H1330.07L1365.62 480.551C1385.04 490.067 1468.43 531.438 1550.89 572.411C1633.36 613.385 1701.42 646.958 1702.21 646.958C1703 646.958 1714.1 639.556 1726.79 630.568C1739.48 621.448 1756.53 609.552 1764.46 604.001C1772.52 598.45 1782.03 591.709 1785.73 589.065C1789.43 586.422 1801.33 577.963 1812.16 570.429C1842.03 549.545 1894.36 512.008 1899.12 508.043C1900.31 506.985 1893.97 497.204 1881.94 481.608C1874.94 472.488 1869.91 466.672 1851.02 445.392C1828.68 420.147 1782.3 379.305 1745.95 352.606C1712.65 328.286 1655.03 296.432 1610.5 277.928C1535.3 246.471 1453.5 227.438 1367.99 221.357C1356.36 220.564 1162.36 220.036 842.154 220.036H334.816L456.265 341.636Z" fill="white"/>
  <path d="M462.873 586.157C453.225 595.938 425.341 628.453 407.236 650.922C300.456 783.757 222.881 943.159 185.746 1106.26C171.474 1168.78 162.884 1227.99 159.448 1287.21C157.201 1327.26 157.994 1426.78 160.637 1426.78C161.033 1426.78 164.073 1422.82 167.377 1417.93C187.2 1388.06 227.771 1334.92 254.466 1303.86C358.339 1182.79 472.52 1086.04 608.771 1003.56C646.302 980.828 713.833 945.802 749.514 930.602C761.144 925.712 773.698 920.161 777.267 918.575C798.015 908.926 876.778 880.376 917.35 867.82C1031.53 832.529 1159.85 810.588 1280.11 805.566C1330.07 803.583 1356.5 799.882 1399.18 789.176C1466.32 772.126 1524.86 743.18 1574.81 701.809L1586.05 692.557L1484.95 691.764C1388.87 691.103 1383.32 690.971 1371.96 688.328C1335.35 679.868 1305.75 663.479 1279.32 637.176C1263.86 621.712 1255.53 610.477 1244.69 590.387L1238.22 578.227L854.709 577.83L471.331 577.566L462.873 586.157Z" fill="white"/>
  <path d="M1937.58 602.679C1928.19 609.552 1916.56 617.879 1911.81 621.051C1907.05 624.356 1900.84 628.85 1897.93 630.964C1887.09 639.027 1842.82 670.617 1815.33 689.914C1799.74 701.017 1767.5 723.883 1743.71 740.933C1698.64 773.051 1687.54 781.114 1659.39 800.94C1637.06 816.669 1617.1 831.076 1617.1 831.34C1617.1 831.472 1624.11 830.547 1632.7 829.225C1662.96 824.731 1684.9 823.41 1726.13 823.41C1780.18 823.41 1810.31 826.714 1852.21 837.288C1882.87 844.954 1902.16 851.959 1924.36 863.062C1966.25 884.342 1999.42 913.684 2025.72 952.94C2044.49 980.829 2062.59 1027.88 2070.79 1069.12C2073.03 1081.15 2075.41 1091.06 2075.94 1091.06C2078.59 1091.06 2100.92 1048.63 2111.23 1023.92C2124.71 991.931 2131.84 966.422 2137.39 931.131C2139.24 919.368 2139.77 908.133 2139.77 881.566C2139.77 851.43 2139.38 845.086 2136.6 830.018C2130.39 794.992 2122.59 771.069 2107.92 741.99C2083.87 693.747 2059.29 664.536 2007.62 622.373C1995.86 612.857 1959.91 590.123 1956.74 590.255C1955.68 590.255 1947.09 595.938 1937.58 602.679Z" fill="white"/>
  <path d="M1680.54 898.088C1648.95 901.128 1606.66 908.001 1579.44 914.742C1546.01 922.936 1499.49 938.665 1462.09 954.526C1435.92 965.496 1380.55 994.178 1355.84 1009.38C1235.97 1083.4 1146.11 1172.35 1069.99 1291.97C1063.25 1302.54 1054 1317.87 1049.24 1326.2C1040.65 1341.4 1012.9 1396.52 1008.8 1406.3C1007.74 1409.2 1004.57 1416.61 1001.93 1422.82C958.582 1523.93 933.076 1636.28 926.468 1755.24L925.675 1769.77L936.776 1778.5C1026.11 1849.21 1135.54 1914.51 1247.73 1964.07C1381.21 2023.02 1528.43 2062.41 1667.32 2076.42C1727.19 2082.5 1819.56 2085.14 1870.18 2082.37C1896.08 2080.91 1939.82 2077.08 1941.28 2076.15C1941.94 2075.76 1931.63 2069.28 1918.55 2061.75C1905.33 2054.21 1890.66 2045.49 1885.77 2042.32C1880.75 2039.15 1873.48 2034.52 1869.52 2032.14C1857.89 2024.87 1813.35 1994.21 1796.83 1982.05C1719.39 1924.68 1642.74 1851.06 1589.75 1783.39C1539.53 1719.28 1501.21 1651.35 1475.83 1581.69C1456.8 1529.61 1446.63 1473.57 1446.63 1421.36C1446.63 1346.03 1464.07 1281.26 1502.53 1214.64C1527.11 1171.95 1576.8 1120.27 1623.71 1088.55C1685.56 1046.65 1750.32 1021.27 1840.44 1003.3C1881.28 995.236 1908.64 992.063 1943.13 991.535C1955.68 991.402 1965.99 990.874 1965.99 990.345C1965.99 989.156 1954.49 975.938 1948.94 970.783C1922.12 945.406 1902.42 933.114 1866.21 919.236C1844.01 910.776 1816.79 904.3 1784.94 899.938C1766.97 897.559 1699.57 896.37 1680.54 898.088Z" fill="white"/>
  <path d="M1245.09 935.361C1087.04 966.29 976.158 1004.49 851.669 1070.58C769.337 1114.46 683.305 1175.12 617.361 1236.19C500.801 1343.91 412.522 1465.78 345.124 1611.7C328.472 1647.78 309.442 1695.63 310.896 1698C311.424 1698.93 319.089 1709.5 327.812 1721.4C351.864 1754.05 382.788 1792.24 404.725 1816.7C447.675 1864.41 513.752 1927.33 551.416 1956.14C555.116 1959.05 564.235 1966.19 571.371 1972C585.379 1983.24 588.022 1985.09 618.021 2006.76C648.152 2028.57 698.899 2061.22 702.468 2061.22C703.393 2061.22 703.657 2059.9 703.26 2058.18C699.824 2042.19 699.032 1929.04 702.071 1884.77C710.132 1771.36 733.392 1653.2 766.959 1554.99C786.385 1498.16 799.336 1466.17 826.164 1408.94C830.525 1399.82 847.572 1367.44 858.277 1348.14C881.536 1306.24 914.442 1256.28 947.349 1212.79C997.699 1146.44 1071.57 1070.05 1133.42 1020.35C1166.33 993.914 1215.36 959.285 1245.36 941.177C1257.78 933.775 1257.78 932.85 1245.09 935.361Z" fill="white"/>
</svg>
